sfk_cyclingleg_states
version=1
nRows=5
nColumns=53
inDegrees=yes

# SIMM Motion File Header:
name sfk_cyclingleg_states
datacolumns 53
datarows 5
otherdata 1
range 0.00000000 0.01413485
endheader
time	/jointset/bb/crank_angle/value	/jointset/bb/crank_angle/speed	/jointset/spindle/pedal_angle_r/value	/jointset/spindle/pedal_angle_r/speed	/jointset/ground_pelvis/pelvis_tilt/value	/jointset/ground_pelvis/pelvis_tilt/speed	/jointset/ground_pelvis/pelvis_list/value	/jointset/ground_pelvis/pelvis_list/speed	/jointset/ground_pelvis/pelvis_rotation/value	/jointset/ground_pelvis/pelvis_rotation/speed	/jointset/ground_pelvis/pelvis_tx/value	/jointset/ground_pelvis/pelvis_tx/speed	/jointset/ground_pelvis/pelvis_ty/value	/jointset/ground_pelvis/pelvis_ty/speed	/jointset/ground_pelvis/pelvis_tz/value	/jointset/ground_pelvis/pelvis_tz/speed	/jointset/hip_r/hip_angle_r/value	/jointset/hip_r/hip_angle_r/speed	/jointset/hip_r/hip_adduction_r/value	/jointset/hip_r/hip_adduction_r/speed	/jointset/hip_r/hip_rotation_r/value	/jointset/hip_r/hip_rotation_r/speed	/jointset/knee_r/knee_angle_r/value	/jointset/knee_r/knee_angle_r/speed	/jointset/knee_r/tib_tx_r/value	/jointset/knee_r/tib_tx_r/speed	/jointset/knee_r/tib_ty_r/value	/jointset/knee_r/tib_ty_r/speed	/jointset/tib_pat_r/pat_angle_r/value	/jointset/tib_pat_r/pat_angle_r/speed	/jointset/tib_pat_r/pat_tx_r/value	/jointset/tib_pat_r/pat_tx_r/speed	/jointset/tib_pat_r/pat_ty_r/value	/jointset/tib_pat_r/pat_ty_r/speed	/jointset/ankle_r/ankle_angle_r/value	/jointset/ankle_r/ankle_angle_r/speed	/jointset/subtalar_r/subtalar_angle_r/value	/jointset/subtalar_r/subtalar_angle_r/speed	/jointset/mtp_r/mtp_angle_r/value	/jointset/mtp_r/mtp_angle_r/speed	/forceset/bifemlh_r/activation	/forceset/bifemlh_r/fiber_length	/forceset/bifemsh_r/activation	/forceset/bifemsh_r/fiber_length	/forceset/glut_max2_r/activation	/forceset/glut_max2_r/fiber_length	/forceset/vas_int_r/activation	/forceset/vas_int_r/fiber_length	/forceset/med_gas_r/activation	/forceset/med_gas_r/fiber_length	/forceset/tib_ant_r/activation	/forceset/tib_ant_r/fiber_length
      0.00000000	    -10.13487855	   -480.13863232	      8.03341092	    609.62321014	      0.00000000	     -0.00000000	      0.00000000	     -0.00000000	      0.00000000	     -0.00000000	     -0.00000000	     -0.00000000	      0.00000000	     -0.00000000	      0.00000000	     -0.00000000	     84.46979388	     17.58800448	      4.10494409	      1.54277142	     -3.54359269	     15.36333090	   -112.80973874	    155.32244865	     -0.00126234	      0.04904428	     -0.49372327	      0.05108793	     17.64771277	     -0.25210942	      0.02299802	      0.07416559	     -0.02403405	      0.01182973	     26.90735729	    -44.76538726	      0.00000000	      0.00000000	      0.00000000	      0.00000000	      0.05000000	      0.13940257	      0.05000000	      0.14517511	      0.05000000	      0.15566217	      0.05000000	      0.15936603	      0.05000000	      0.13038013	      0.05000000	      0.11154927
      0.00110510	    -10.66547957	   -480.13863232	      8.70687962	    609.21420677	     -0.00000000	     -0.00000000	     -0.00000000	     -0.00000000	     -0.00000000	     -0.00000000	     -0.00000000	     -0.00000000	     -0.00000000	     -0.00000000	     -0.00000000	     -0.00000000	     84.48804337	     15.43934754	      4.10665910	      1.56099231	     -3.52652770	     15.52030501	   -112.63698297	    157.32708411	     -0.00120792	      0.04944587	     -0.49366642	      0.05179367	     17.64742714	     -0.26486752	      0.02308044	      0.07499543	     -0.02402091	      0.01194992	     26.85773329	    -45.04141064	     -0.00000000	     -0.00000000	      0.00000000	     -0.00000000	      0.04921279	      0.13940337	      0.04921279	      0.14517806	      0.04921279	      0.15566293	      0.04921279	      0.15935301	      0.04921279	      0.13038258	      0.04921279	      0.11155079
      0.00544835	    -12.75084205	   -480.13863232	     11.34930852	    607.57599608	     -0.00000000	     -0.00000000	      0.00000000	      0.00000000	      0.00000000	      0.00000000	     -0.00000000	     -0.00000000	     -0.00000000	     -0.00000000	     -0.00000000	     -0.00000000	     84.53673012	      6.97622249	      4.11358975	      1.62967385	     -3.45782039	     16.11156312	   -111.93678811	    165.06404717	     -0.00098994	      0.05089607	     -0.49343550	      0.05453390	     17.64616449	     -0.31709607	      0.02341307	      0.07814422	     -0.02396802	      0.01239706	     26.65996303	    -45.99374362	      0.00000000	      0.00000000	     -0.00000000	     -0.00000000	      0.04625139	      0.13942333	      0.04625139	      0.14524472	      0.04625139	      0.15567863	      0.04625139	      0.15914145	      0.04625139	      0.13044433	      0.04625139	      0.11159904
      0.00979160	    -14.83620454	   -480.13863232	     13.98453417	    605.89955727	     -0.00000000	     -0.00000000	      0.00000000	      0.00000000	      0.00000000	      0.00000000	     -0.00000000	     -0.00000000	     -0.00000000	     -0.00000000	     -0.00000000	     -0.00000000	     84.54862498	     -1.49892914	      4.12080814	      1.69343593	     -3.38663288	     16.66256075	   -111.20348482	    172.57245623	     -0.00076611	      0.05214115	     -0.49319279	      0.05721862	     17.64466843	     -0.37226299	      0.02375898	      0.08111247	     -0.02391328	      0.01280287	     26.45850866	    -46.73884256	      0.00000000	      0.00000000	     -0.00000000	     -0.00000000	      0.04348845	      0.13947251	      0.04348845	      0.14536851	      0.04348845	      0.15570755	      0.04348845	      0.15879344	      0.04348845	      0.13056076	      0.04348845	      0.11175005
      0.01413485	    -16.92156702	   -480.13863232	     16.61242010	    604.19830524	     -0.00000000	     -0.00000000	      0.00000000	      0.00000000	      0.00000000	      0.00000000	     -0.00000000	     -0.00000000	     -0.00000000	     -0.00000000	     -0.00000000	      0.00000000	     84.52372478	     -9.96369385	      4.12829223	      1.75197727	     -3.31313772	     17.17440734	   -110.43807223	    179.84949148	     -0.00053731	      0.05318097	     -0.49293855	      0.05984503	     17.64292739	     -0.42979989	      0.02411739	      0.08389968	     -0.02385687	      0.01316593	     26.25425696	    -47.28301298	      0.00000000	      0.00000000	     -0.00000000	     -0.00000000	      0.04090835	      0.13954998	      0.04090835	      0.14551384	      0.04090835	      0.15573992	      0.04090835	      0.15849506	      0.04090835	      0.13069796	      0.04090835	      0.11197553
